General
Complete name : NAA MANCHI JESUS TELUGU MUSIC BY~~loveislifefoelovers@gmail.com~~NIKHIL


File size : 23.3 KiB

General
Complete name : NAA MANCHI JESUS TELUGU MUSIC BY~~loveislifefoelovers@gmail.com~~NIKHILNew Artist - Album Name - Title 01.mp3
Format : MPEG Audio
File size : 1.84 MiB
Duration : 48s 65ms
Overall bit rate : 320 Kbps
Album : Album Name
Track name : Title 01
Track name/Position : 01
Performer : New Artist
Writing library : LAME3.98a
Comment : Audio CD Ripper Plus 2.0

Audio
Format : MPEG Audio
Format version : Version 1
Format profile : Layer 3
Mode : Joint stereo
Duration : 48s 117ms
Bit rate mode : Constant
Bit rate : 320 Kbps
Channel(s) : 2 channels
Sampling rate : 44.1 KHz
Compression mode : Lossy
Stream size : 1.83 MiB (100%)
Writing library : LAME3.98a
Encoding settings : -m j -V 4 -q 3 -lowpass 20.5

General
Complete name : NAA MANCHI JESUS TELUGU MUSIC BY~~loveislifefoelovers@gmail.com~~NIKHILNew Artist - Album Name - Title 02.mp3
Format : MPEG Audio
File size : 16.5 MiB
Duration : 7mn 13s
Overall bit rate : 320 Kbps
Album : Album Name
Track name : Title 02
Track name/Position : 02
Performer : New Artist
Writing library : LAME3.98a
Comment : Audio CD Ripper Plus 2.0

Audio
Format : MPEG Audio
Format version : Version 1
Format profile : Layer 3
Mode : Joint stereo
Mode extension : MS Stereo
Duration : 7mn 13s
Bit rate mode : Constant
Bit rate : 320 Kbps
Channel(s) : 2 channels
Sampling rate : 44.1 KHz
Compression mode : Lossy
Stream size : 16.5 MiB (100%)
Writing library : LAME3.98a
Encoding settings : -m j -V 4 -q 3 -lowpass 20.5

General
Complete name : NAA MANCHI JESUS TELUGU MUSIC BY~~loveislifefoelovers@gmail.com~~NIKHILNew Artist - Album Name - Title 03.mp3
Format : MPEG Audio
File size : 12.2 MiB
Duration : 5mn 19s
Overall bit rate : 320 Kbps
Album : Album Name
Track name : Title 03
Track name/Position : 03
Performer : New Artist
Writing library : LAME3.98a
Comment : Audio CD Ripper Plus 2.0

Audio
Format : MPEG Audio
Format version : Version 1
Format profile : Layer 3
Mode : Joint stereo
Duration : 5mn 19s
Bit rate mode : Constant
Bit rate : 320 Kbps
Channel(s) : 2 channels
Sampling rate : 44.1 KHz
Compression mode : Lossy
Stream size : 12.2 MiB (100%)
Writing library : LAME3.98a
Encoding settings : -m j -V 4 -q 3 -lowpass 20.5



General
Complete name : NAA MANCHI JESUS TELUGU MUSIC BY~~loveislifefoelovers@gmail.com~~NIKHILNew Artist - Album Name - Title 04.mp3
Format : MPEG Audio
File size : 17.1 MiB
Duration : 7mn 28s
Overall bit rate : 320 Kbps
Album : Album Name
Track name : Title 04
Track name/Position : 04
Performer : New Artist
Writing library : LAME3.98a
Comment : Audio CD Ripper Plus 2.0

Audio
Format : MPEG Audio
Format version : Version 1
Format profile : Layer 3
Mode : Joint stereo
Duration : 7mn 28s
Bit rate mode : Constant
Bit rate : 320 Kbps
Channel(s) : 2 channels
Sampling rate : 44.1 KHz
Compression mode : Lossy
Stream size : 17.1 MiB (100%)
Writing library : LAME3.98a
Encoding settings : -m j -V 4 -q 3 -lowpass 20.5

General
Complete name : NAA MANCHI JESUS TELUGU MUSIC BY~~loveislifefoelovers@gmail.com~~NIKHILNew Artist - Album Name - Title 05.mp3
Format : MPEG Audio
File size : 12.8 MiB
Duration : 5mn 36s
Overall bit rate : 320 Kbps
Album : Album Name
Track name : Title 05
Track name/Position : 05
Performer : New Artist
Writing library : LAME3.98a
Comment : Audio CD Ripper Plus 2.0

Audio
Format : MPEG Audio
Format version : Version 1
Format profile : Layer 3
Mode : Joint stereo
Duration : 5mn 36s
Bit rate mode : Constant
Bit rate : 320 Kbps
Channel(s) : 2 channels
Sampling rate : 44.1 KHz
Compression mode : Lossy
Stream size : 12.8 MiB (100%)
Writing library : LAME3.98a
Encoding settings : -m j -V 4 -q 3 -lowpass 20.5

General
Complete name : NAA MANCHI JESUS TELUGU MUSIC BY~~loveislifefoelovers@gmail.com~~NIKHILNew Artist - Album Name - Title 06.mp3
Format : MPEG Audio
File size : 16.0 MiB
Duration : 7mn 0s
Overall bit rate : 320 Kbps
Album : Album Name
Track name : Title 06
Track name/Position : 06
Performer : New Artist
Writing library : LAME3.98a
Comment : Audio CD Ripper Plus 2.0

Audio
Format : MPEG Audio
Format version : Version 1
Format profile : Layer 3
Mode : Joint stereo
Duration : 7mn 0s
Bit rate mode : Constant
Bit rate : 320 Kbps
Channel(s) : 2 channels
Sampling rate : 44.1 KHz
Compression mode : Lossy
Stream size : 16.0 MiB (100%)
Writing library : LAME3.98a
Encoding settings : -m j -V 4 -q 3 -lowpass 20.5

General
Complete name : NAA MANCHI JESUS TELUGU MUSIC BY~~loveislifefoelovers@gmail.com~~NIKHILNew Artist - Album Name - Title 07.mp3
Format : MPEG Audio
File size : 14.4 MiB
Duration : 6mn 17s
Overall bit rate : 320 Kbps
Album : Album Name
Track name : Title 07
Track name/Position : 07
Performer : New Artist
Writing library : LAME3.98a
Comment : Audio CD Ripper Plus 2.0

Audio
Format : MPEG Audio
Format version : Version 1
Format profile : Layer 3
Mode : Joint stereo
Duration : 6mn 17s
Bit rate mode : Constant
Bit rate : 320 Kbps
Channel(s) : 2 channels
Sampling rate : 44.1 KHz
Compression mode : Lossy
Stream size : 14.4 MiB (100%)
Writing library : LAME3.98a
Encoding settings : -m j -V 4 -q 3 -lowpass 20.5

General
Complete name : NAA MANCHI JESUS TELUGU MUSIC BY~~loveislifefoelovers@gmail.com~~NIKHILNew Artist - Album Name - Title 08.mp3
Format : MPEG Audio
File size : 10.4 MiB
Duration : 4mn 33s
Overall bit rate : 320 Kbps
Album : Album Name
Track name : Title 08
Track name/Position : 08
Performer : New Artist
Writing library : LAME3.98a
Comment : Audio CD Ripper Plus 2.0

Audio
Format : MPEG Audio
Format version : Version 1
Format profile : Layer 3
Mode : Joint stereo
Duration : 4mn 33s
Bit rate mode : Constant
Bit rate : 320 Kbps
Channel(s) : 2 channels
Sampling rate : 44.1 KHz
Compression mode : Lossy
Stream size : 10.4 MiB (100%)
Writing library : LAME3.98a
Encoding settings : -m j -V 4 -q 3 -lowpass 20.5

General
Complete name : NAA MANCHI JESUS TELUGU MUSIC BY~~loveislifefoelovers@gmail.com~~NIKHILNew Artist - Album Name - Title 09.mp3
Format : MPEG Audio
File size : 11.5 MiB
Duration : 5mn 2s
Overall bit rate : 320 Kbps
Album : Album Name
Track name : Title 09
Track name/Position : 09
Performer : New Artist
Writing library : LAME3.98a
Comment : Audio CD Ripper Plus 2.0

Audio
Format : MPEG Audio
Format version : Version 1
Format profile : Layer 3
Mode : Joint stereo
Duration : 5mn 2s
Bit rate mode : Constant
Bit rate : 320 Kbps
Channel(s) : 2 channels
Sampling rate : 44.1 KHz
Compression mode : Lossy
Stream size : 11.5 MiB (100%)
Writing library : LAME3.98a
Encoding settings : -m j -V 4 -q 3 -lowpass 20.5

General
Complete name : NAA MANCHI JESUS TELUGU MUSIC BY~~loveislifefoelovers@gmail.com~~NIKHILPicture 001.jpg
Format : JPEG
File size : 691 KiB

Image
Format : JPEG
Width : 1 024 pixels
Height : 1 296 pixels
Chroma subsampling : 4:2:0
Bit depth : 8 bits
Compression mode : Lossy

General
Complete name : NAA MANCHI JESUS TELUGU MUSIC BY~~loveislifefoelovers@gmail.com~~NIKHILPicture 002.jpg
Format : JPEG
File size : 542 KiB

Image
Format : JPEG
Width : 1 024 pixels
Height : 1 040 pixels
Chroma subsampling : 4:2:0
Bit depth : 8 bits
Compression mode : Lossy

General
Complete name : NAA MANCHI JESUS TELUGU MUSIC BY~~loveislifefoelovers@gmail.com~~NIKHILPicture 003.jpg
Format : JPEG
File size : 702 KiB

Image
Format : JPEG
Width : 976 pixels
Height : 944 pixels
Chroma subsampling : 4:2:0
Bit depth : 8 bits
Compression mode : Lossy

screen:--

[img]http://i894.photobucket.com/albums/ac145/nikhilsweet/Picture001-1.jpg[/img]

[img]http://i894.photobucket.com/albums/ac145/nikhilsweet/th_Picture002.jpg[/img]

[img]http://i894.photobucket.com/albums/ac145/nikhilsweet/th_Picture003.jpg[/img]


pls forward ur comment for the further posing as such ones....

THIS TORRENT IS BROUGHT TO U BY

[img]http://i894.photobucket.com/albums/ac145/nikhilsweet/cooltext432403806.png[/img]